<?xml version="1.0" encoding="utf-8"?><svg viewBox="0 0 129 29" xmlns="http://www.w3.org/2000/svg" xmlns:xlink="http://www.w3.org/1999/xlink"><style>:root>svg{display:none}:root>svg:target{display:block}</style><svg fill="none" viewBox="0 0 129 29" id="logo" xmlns="http://www.w3.org/2000/svg"><path d="M108.029 3.415l-2.813 11.163.071.033c.267-.356.508-.719.797-1.062 1.283-1.576 2.826-2.778 4.896-3.156 3.156-.578 6.569.626 7.424 4.793.927 4.506-1.378 9.915-5.296 12.407-1.935 1.232-4.043 1.705-6.305 1.157-1.991-.48-3.113-1.852-3.596-3.755-.175-.688-.226-1.409-.337-2.13-.051.058-.125.126-.186.206-1.269 1.704-2.551 3.396-3.788 5.12-.292.406-.597.589-1.082.516-.12-.017-.254 0-.414-.02l.62-2.503 5.586-22.304c.089-.357.208-.5.62-.5 1.246.057 2.496.035 3.803.035zm6.158 13.015c-.041-.448-.059-.88-.125-1.309-.401-2.625-2.752-3.892-5.218-2.81-1.089.475-1.899 1.278-2.587 2.21a13.918 13.918 0 00-2.417 5.896c-.239 1.327-.351 2.664 0 3.99.662 2.503 3.024 3.504 5.307 2.185a6.348 6.348 0 001.5-1.191c2.321-2.54 3.301-5.617 3.54-8.96v-.01zM53.945 28.61l1.298-5.109 4.014-15.748c.343-1.337.678-2.678 1.031-4.005.033-.123.178-.308.274-.31 1.346-.02 2.694-.015 4.096-.015-.957 3.754-1.904 7.459-2.877 11.263.455-.606.818-1.144 1.234-1.64 2.031-2.435 5.18-3.381 8.093-2.46 1.947.616 3.138 2.113 3.344 4.162.14 1.392-.178 2.719-.523 4.045-.835 3.184-1.662 6.367-2.481 9.55-.02.077-.051.152-.084.25h-4.23c.152-.611.3-1.204.45-1.798.814-3.204 1.637-6.402 2.434-9.609.26-.947.268-1.944.023-2.896a2.823 2.823 0 00-.98-1.543 2.895 2.895 0 00-1.732-.634c-1.9-.14-3.3.728-4.448 2.117-1.232 1.502-1.831 3.28-2.286 5.122a812.934 812.934 0 01-2.285 8.938c-.03.122-.178.307-.274.307-1.34.018-2.687.013-4.09.013zM91.804 28.71c-.409-1.842-.813-3.647-1.242-5.574-.114.223-.185.353-.254.485-1.092 2.183-2.595 3.973-4.977 4.849-1.899.698-3.834.75-5.702-.106-1.87-.856-2.593-2.405-2.69-4.325-.065-1.291.293-2.52.607-3.754l2.372-9.291c.048-.195.066-.386.368-.38 1.27.014 2.54 0 3.809 0 .071.007.142.02.21.037l-.494 1.925c-.8 3.108-1.62 6.212-2.385 9.328a7.796 7.796 0 00-.185 2.173c.081 1.972 1.549 3.191 3.555 3.033 1.58-.122 2.757-.933 3.72-2.097 1.221-1.472 1.843-3.209 2.285-5.031.741-3.024 1.523-6.04 2.285-9.058.048-.19.089-.32.333-.318h3.809c.063.008.126.022.187.042-.203.826-.398 1.637-.601 2.448-1.245 4.995-2.49 9.988-3.738 14.98-.19.751-.04.596-.79.616l-.482.018zM22.325 4.476c-2.126 0-3.189.542-3.187 1.627V24.97c0 1.085 1.062 1.627 3.187 1.625v2.002H10.44v-2.002c2.148 0 3.223-.542 3.223-1.625V6.103c0-1.083-1.075-1.625-3.223-1.627V2.394h11.884v2.082zM40.272 2.394a24.25 24.25 0 014.192.335 8.75 8.75 0 013.245 1.201 5.782 5.782 0 012.08 2.346c.489.99.734 2.247.736 3.774.001 1.527-.244 2.82-.737 3.88a6.17 6.17 0 01-2.082 2.488 8.63 8.63 0 01-3.245 1.321 20.896 20.896 0 01-4.197.39H34.74v6.836c0 1.087 1.325 1.63 3.974 1.63v2.002H26.08v-2.002c2.123 0 3.185-.542 3.187-1.625V6.103c0-1.083-1.063-1.625-3.187-1.627V2.394h14.192zm-5.53 2.966v9.876h4.902c1.933 0 3.317-.436 4.152-1.309.834-.872 1.252-2.159 1.252-3.86 0-1.486-.418-2.643-1.252-3.47-.835-.829-2.219-1.24-4.152-1.237h-4.903z" fill="#fff"/><path d="M122.816 5.488c.191.177.411.318.651.42.407.155.849.2 1.28.13.224-.026.444-.079.655-.156a9.97 9.97 0 01-2.7 4.487 6.898 6.898 0 003.661-1.332c1.464-1.1 2.856-3.132 2.608-5.328-.041-.358-.273-2.08-1.518-3.002-.806-.599-1.773-.817-2.901-.655-.928.133-1.644.505-2.151 1.107-.507.603-.694 1.37-.56 2.292.128.88.453 1.56.975 2.037zM6.184 5.488c-.19.177-.411.318-.65.42-.408.155-.85.2-1.281.13a2.888 2.888 0 01-.655-.156 9.972 9.972 0 002.7 4.487 6.903 6.903 0 01-3.661-1.332C1.173 7.937-.22 5.905.029 3.709.07 3.351.302 1.63 1.547.707 2.353.108 3.32-.11 4.447.052 5.377.185 6.093.557 6.6 1.159c.507.603.694 1.37.56 2.292-.128.88-.453 1.56-.975 2.037z" fill="#DA4533"/></svg></svg>